<svg xmlns="http://www.w3.org/2000/svg" viewBox="0 0 500 400" width="500" height="400">
  <style>
    .st0{fill:#B9FF66;}
    .st1{fill:#191A23;}
    .st2{fill:#FFFFFF;}
    .st3{fill:#EFEFEF;}
  </style>
  <rect class="st3" width="500" height="400" rx="20" opacity="0.5"/>
  <circle class="st0" cx="250" cy="200" r="120" opacity="0.7"/>
  <g transform="translate(180, 130)">
    <rect class="st2" width="140" height="180" rx="10"/>
    <rect class="st0" x="20" y="20" width="100" height="15" rx="5"/>
    <rect class="st1" x="20" y="45" width="80" height="8" rx="4" opacity="0.7"/>
    <rect class="st1" x="20" y="60" width="100" height="8" rx="4" opacity="0.7"/>
    <rect class="st1" x="20" y="75" width="90" height="8" rx="4" opacity="0.7"/>
    <circle class="st0" cx="40" cy="120" r="20"/>
    <path class="st1" d="M50 155 L55 140 L70 135 L55 130 L50 115 L45 130 L30 135 L45 140 Z" />
    <rect class="st1" x="80" y="110" width="40" height="8" rx="4" opacity="0.7"/>
    <rect class="st1" x="80" y="125" width="30" height="8" rx="4" opacity="0.7"/>
  </g>
  <g transform="translate(140, 100)">
    <circle class="st2" cx="30" cy="30" r="30"/>
    <path class="st1" d="M30 10 L35 25 L50 25 L40 35 L45 50 L30 40 L15 50 L20 35 L10 25 L25 25 Z" />
  </g>
  <g transform="translate(330, 100)">
    <polygon class="st2" points="0,30 30,0 60,30 30,60" />
    <circle class="st0" cx="30" cy="30" r="15"/>
  </g>
</svg> 